<svg width="1150" height="364" viewBox="0 0 1150 364" fill="none" xmlns="http://www.w3.org/2000/svg">
<path d="M72.7905 25.6249C75.8218 10.7142 88.9334 0 104.149 0H1052.62C1068.38 0 1081.8 11.4774 1084.24 27.0493L1107.72 177.049C1108.24 180.33 1108.24 183.67 1107.72 186.951L1084.24 336.951C1081.8 352.523 1068.38 364 1052.62 364H104.149C88.9334 364 75.8218 353.286 72.7905 338.375L42.296 188.375C41.4408 184.168 41.4408 179.832 42.296 175.625L72.7905 25.6249Z" fill="#FFF4EB"/>
<path d="M1131.38 167.121C1132.55 165.95 1134.45 165.95 1135.62 167.121L1147.88 179.379C1149.05 180.55 1149.05 182.45 1147.88 183.621L1135.62 195.879C1134.45 197.05 1132.55 197.05 1131.38 195.879L1119.12 183.621C1117.95 182.45 1117.95 180.55 1119.12 179.379L1131.38 167.121Z" fill="#FFF4EB"/>
<path d="M14.3787 167.121C15.5503 165.95 17.4497 165.95 18.6213 167.121L30.8787 179.379C32.0503 180.55 32.0503 182.45 30.8787 183.621L18.6213 195.879C17.4497 197.05 15.5503 197.05 14.3787 195.879L2.12132 183.621C0.949747 182.45 0.949747 180.55 2.12132 179.379L14.3787 167.121Z" fill="#FFF4EB"/>
</svg>
